<svg width="20" height="20" viewBox="0 0 20 20" fill="none" xmlns="http://www.w3.org/2000/svg">
<path d="M11.667 9.99767C11.667 7.92126 9.73616 5.83301 7.38128 5.83301C7.10233 5.83301 6.18286 5.83302 5.95271 5.83302C3.58578 5.83302 1.66699 7.69761 1.66699 9.99767C1.66699 11.9797 3.09177 13.6383 5.00033 14.0592C5.30663 14.1268 5.62538 14.1623 5.95271 14.1623" stroke="black" stroke-width="2" stroke-linecap="round" stroke-linejoin="round"/>
<path d="M8.33301 9.99768C8.33301 12.0741 10.2638 14.1623 12.6188 14.1623C12.8977 14.1623 13.8172 14.1623 14.0473 14.1623C16.4143 14.1623 18.333 12.2978 18.333 9.99768C18.333 8.01568 16.9083 6.35705 14.9997 5.93621C14.6933 5.86867 14.3746 5.83301 14.0473 5.83301" stroke="black" stroke-width="2" stroke-linecap="round" stroke-linejoin="round"/>
</svg>
